<?xml version="1.0" standalone="no"?>
<!DOCTYPE svg PUBLIC "-//W3C//DTD SVG 20010904//EN"
 "http://www.w3.org/TR/2001/REC-SVG-20010904/DTD/svg10.dtd">
<svg version="1.0" xmlns="http://www.w3.org/2000/svg"
 width="255.000000pt" height="198.000000pt" viewBox="0 0 255.000000 198.000000"
 preserveAspectRatio="xMidYMid meet">
<metadata>
Created by potrace 1.16, written by Peter Selinger 2001-2019
</metadata>
<g transform="translate(0.000000,198.000000) scale(0.100000,-0.100000)"
fill="#000000" stroke="none">
<path d="M510 1902 c-14 -2 -37 -7 -51 -13 -17 -7 -34 -7 -52 0 -15 6 -27 7
-27 2 0 -5 -16 -18 -35 -30 -22 -13 -35 -28 -35 -41 0 -14 -11 -26 -34 -35
-38 -16 -79 -62 -69 -78 3 -5 1 -7 -4 -4 -20 12 -40 -27 -40 -76 0 -26 -5 -53
-11 -59 -13 -13 -17 -78 -4 -78 4 0 16 -13 27 -29 10 -16 23 -27 27 -25 4 3 5
-1 2 -9 -3 -9 10 -26 33 -44 34 -27 44 -30 103 -27 87 3 154 15 162 27 4 6 10
-1 13 -15 6 -22 13 -27 43 -30 34 -3 37 -6 40 -36 2 -18 -2 -40 -9 -48 -10
-12 -7 -20 13 -42 37 -41 58 -79 58 -105 0 -12 5 -28 12 -35 8 -8 8 -15 -2
-27 -11 -13 -10 -22 6 -54 l19 -39 47 51 c27 28 48 54 48 59 0 4 5 8 12 8 7 0
53 43 104 96 51 52 93 92 95 87 2 -4 -66 -79 -152 -167 l-155 -158 -29 43
c-15 24 -28 49 -28 56 0 7 -5 9 -10 6 -6 -4 -8 0 -4 10 6 16 -15 41 -26 30 -4
-3 -7 3 -7 13 0 11 -7 29 -16 40 -8 10 -12 13 -8 5 5 -10 3 -12 -5 -7 -7 5
-10 14 -7 22 3 8 1 14 -4 14 -6 0 -10 -8 -10 -18 0 -10 -11 -29 -26 -43 -21
-19 -24 -20 -18 -5 5 14 4 17 -5 12 -7 -5 -10 -14 -7 -21 3 -8 -3 -19 -11 -27
-15 -11 -16 -11 -10 5 3 9 4 17 1 17 -2 0 -9 -12 -14 -26 -6 -14 -15 -22 -20
-19 -6 4 -9 1 -8 -6 2 -7 -2 -13 -9 -14 -13 0 -28 -13 -28 -23 0 -4 -17 -24
-38 -45 -22 -23 -35 -31 -31 -20 5 14 4 15 -4 3 -6 -8 -8 -18 -5 -23 3 -4 -3
-7 -13 -5 -13 2 -18 -2 -16 -14 1 -9 -3 -20 -9 -24 -8 -4 -9 -3 -5 4 13 22
-13 12 -28 -10 -17 -25 -21 -52 -7 -46 5 2 78 68 161 148 84 80 155 146 159
147 12 5 84 -110 88 -141 2 -17 8 -32 13 -34 6 -2 10 -12 10 -22 0 -9 6 -23
14 -29 7 -6 16 -32 20 -57 6 -44 49 -112 68 -107 4 2 8 -2 8 -8 0 -5 5 -7 10
-4 6 3 10 1 10 -5 0 -6 11 -5 30 5 26 13 31 22 30 50 0 3 5 11 12 19 9 9 15
10 24 2 9 -8 9 -13 0 -18 -8 -6 -8 -8 2 -8 22 0 13 -20 -10 -21 -15 0 -18 -3
-8 -6 8 -4 21 -12 28 -20 12 -12 17 -12 36 1 11 8 20 20 18 27 -2 7 3 16 10
20 9 6 10 9 1 9 -7 0 -16 -7 -21 -16 -5 -10 -14 -14 -21 -9 -9 5 -5 11 11 19
36 19 67 25 74 15 6 -10 84 -12 108 -3 12 5 16 20 16 60 l0 54 -40 0 c-29 0
-40 -4 -40 -15 0 -8 9 -15 21 -15 17 0 20 -5 17 -32 -4 -38 -31 -48 -63 -23
-19 14 -19 16 -2 29 12 9 17 23 14 38 -4 23 -4 23 -6 1 0 -13 -5 -23 -10 -23
-6 0 -6 12 0 32 6 22 5 34 -2 39 -8 4 -8 9 -1 13 6 3 13 2 17 -4 4 -6 15 -2
27 10 12 11 27 20 34 20 22 0 44 42 44 83 0 21 -3 36 -7 34 -5 -3 -8 6 -8 19
0 13 3 24 7 24 4 0 6 9 5 19 0 11 -5 17 -11 14 -5 -4 -7 1 -3 11 4 9 3 15 -2
12 -5 -4 -26 19 -46 50 -24 36 -42 53 -51 50 -12 -4 -12 -2 -4 14 6 12 16 17
26 13 8 -3 13 -8 10 -11 -3 -3 7 -19 22 -37 15 -18 32 -40 39 -51 10 -16 12
-16 12 -3 1 19 50 72 104 112 20 16 44 45 53 65 8 20 26 54 40 74 27 38 25 70
-2 47 -7 -6 -12 -15 -9 -19 2 -4 -6 -5 -20 -3 -13 3 -40 -1 -61 -7 -32 -11
-39 -11 -43 1 -2 8 -20 30 -40 49 -45 45 -91 110 -91 131 0 20 -27 33 -34 16
-2 -7 -4 -3 -3 8 1 11 -11 48 -28 83 -27 56 -33 62 -56 58 -14 -3 -43 0 -65 5
-87 23 -85 23 -91 0 -7 -26 -33 -27 -66 -1 -14 11 -34 20 -44 20 -30 0 -58 24
-47 41 24 39 3 45 -116 31z"/>
<path d="M1280 875 c0 -111 1 -115 21 -115 21 0 22 3 16 88 l-6 87 41 -87 c30
-64 46 -88 59 -88 17 0 19 10 19 115 0 96 -3 115 -15 115 -12 0 -15 -16 -15
-82 l0 -82 -40 82 c-30 63 -44 82 -60 82 -19 0 -20 -6 -20 -115z"/>
<path d="M1686 965 c-42 -45 -41 -140 0 -186 25 -28 94 -26 122 4 43 46 37
158 -11 192 -34 24 -84 19 -111 -10z m102 -35 c16 -32 10 -116 -11 -137 -25
-26 -63 -9 -77 33 -13 40 -8 97 11 120 18 22 61 13 77 -16z"/>
<path d="M1880 897 c0 -115 12 -137 74 -137 71 0 78 11 78 126 0 83 -2 100
-16 102 -14 3 -16 -9 -16 -85 0 -48 -4 -94 -9 -101 -5 -8 -21 -12 -37 -10
l-29 3 -3 98 c-2 89 -4 97 -22 97 -18 0 -20 -7 -20 -93z"/>
<path d="M2100 876 c0 -96 3 -116 15 -116 11 0 15 12 15 51 0 45 2 50 15 39 8
-7 25 -30 37 -51 13 -23 29 -39 40 -39 23 0 23 3 -8 52 l-26 41 21 17 c27 19
31 74 8 97 -8 9 -38 18 -66 21 l-51 5 0 -117z"/>
</g>
</svg>
