<?xml version="1.0" standalone="no"?>
<!DOCTYPE svg PUBLIC "-//W3C//DTD SVG 20010904//EN"
 "http://www.w3.org/TR/2001/REC-SVG-20010904/DTD/svg10.dtd">
<svg version="1.0" xmlns="http://www.w3.org/2000/svg"
 width="400.000000pt" height="222.000000pt" viewBox="0 0 400.000000 222.000000"
 preserveAspectRatio="xMidYMid meet">

<g transform="translate(0.000000,222.000000) scale(0.100000,-0.100000)"
fill="#000000" stroke="none">
<path d="M3430 2172 c-48 -24 -209 -288 -210 -344 0 -57 33 -133 110 -253 62
-98 68 -111 56 -130 -7 -11 -66 -102 -131 -203 l-118 -184 35 -201 34 -202 57
88 c31 48 110 173 174 277 65 104 121 188 125 187 4 -1 87 -126 185 -277 l178
-275 8 55 c5 30 19 122 32 203 l24 148 -135 203 -135 203 63 104 c91 149 126
242 111 299 -3 14 -48 86 -99 161 -83 121 -97 137 -132 147 -61 18 -190 15
-232 -6z m236 -269 c-10 -25 -108 -185 -111 -181 -11 11 -115 183 -115 190 0
4 52 8 116 8 104 0 115 -2 110 -17z m11 -490 c2 -6 -7 -23 -20 -38 l-23 -27
-112 69 -111 70 24 36 25 36 107 -68 c59 -37 109 -73 110 -78z"/>
<path d="M1400 2160 c-134 -10 -200 -20 -200 -31 0 -15 38 -29 79 -29 22 0 43
-5 47 -11 7 -12 23 -1339 16 -1376 -3 -18 -16 -26 -58 -39 -30 -8 -54 -21 -54
-27 0 -9 56 -12 218 -11 192 1 225 4 283 23 147 47 259 152 340 316 82 169
120 397 100 598 -14 134 -33 204 -81 304 -75 152 -203 249 -368 279 -82 14
-170 15 -322 4z m322 -60 c68 -32 134 -104 179 -195 63 -129 88 -260 89 -460
0 -298 -63 -522 -186 -655 -64 -69 -135 -107 -214 -116 -101 -11 -94 -60 -81
572 16 775 20 843 44 867 16 16 29 19 71 14 29 -3 73 -15 98 -27z"/>
<path d="M2243 2148 c-9 -15 8 -26 47 -33 26 -4 46 -15 55 -28 11 -18 14 -143
17 -704 2 -375 0 -685 -4 -689 -4 -4 -29 -12 -55 -19 -27 -7 -49 -18 -51 -26
-2 -12 57 -14 367 -15 336 -2 371 0 375 15 3 9 14 65 26 125 15 77 19 111 11
119 -13 13 -9 19 -67 -86 -27 -49 -56 -93 -65 -97 -22 -12 -204 -30 -302 -30
l-80 0 7 347 c4 217 11 350 17 354 6 3 90 9 187 13 166 7 191 12 192 37 0 4
-86 10 -192 14 l-191 7 6 292 c4 160 10 308 13 329 l7 37 76 0 c131 -1 223
-16 241 -38 9 -11 31 -61 49 -112 45 -125 58 -110 53 66 l-4 131 -365 -1
c-201 -1 -367 -4 -370 -8z"/>
<path d="M20 2136 c0 -10 16 -17 45 -21 24 -4 49 -13 55 -20 17 -21 37 -1379
21 -1398 -6 -8 -28 -18 -49 -22 -36 -7 -62 -21 -62 -34 0 -3 88 -6 195 -6 146
0 195 3 195 12 0 7 -19 17 -42 23 -79 20 -73 -15 -70 401 4 523 20 1009 33
1025 5 7 28 15 50 19 24 4 39 12 39 21 0 12 -35 14 -205 14 -172 0 -205 -2
-205 -14z"/>
<path d="M825 1771 c-154 -38 -272 -222 -315 -494 -18 -111 -8 -333 19 -417
52 -165 147 -240 302 -240 81 0 140 18 229 70 94 56 107 67 94 80 -8 8 -29 2
-80 -25 -189 -97 -303 -52 -365 145 -15 44 -23 104 -26 186 l-6 121 174 1
c209 1 265 8 291 34 19 19 20 29 14 109 -23 300 -156 472 -331 430z m66 -51
c42 -23 74 -122 89 -281 11 -116 6 -155 -25 -175 -24 -16 -192 -34 -242 -27
-32 5 -33 6 -33 57 0 28 6 91 14 139 36 218 113 331 197 287z"/>
<path d="M1865 420 c0 -93 1 -100 20 -100 18 0 20 8 23 100 4 99 4 100 -20
100 -23 0 -23 -2 -23 -100z"/>
<path d="M2502 488 c9 -24 8 -33 0 -36 -9 -3 -9 -9 -1 -24 6 -11 8 -26 5 -34
-10 -25 5 -74 23 -74 14 0 16 13 13 100 -3 98 -4 100 -27 100 -23 0 -23 -2
-13 -32z"/>
<path d="M3255 420 c0 -93 1 -100 20 -100 18 0 20 8 23 100 4 99 4 100 -20
100 -23 0 -23 -2 -23 -100z"/>
<path d="M1276 501 c-7 -11 18 -33 27 -24 4 3 7 12 7 20 0 15 -26 18 -34 4z"/>
<path d="M2330 496 c0 -8 4 -17 9 -20 11 -7 33 18 24 27 -12 12 -33 7 -33 -7z"/>
<path d="M3012 494 c4 -21 22 -23 26 -1 2 10 -3 17 -13 17 -10 0 -15 -6 -13
-16z"/>
<path d="M135 410 c0 -89 0 -90 25 -90 25 0 25 1 25 90 0 89 0 90 -25 90 -25
0 -25 -1 -25 -90z"/>
<path d="M438 489 c-10 -5 -18 -16 -18 -24 0 -7 -8 -16 -17 -18 -14 -4 -14 -5
-3 -6 12 -1 15 -10 12 -40 -6 -58 11 -81 56 -80 22 1 29 3 17 6 -28 7 -35 21
-35 70 0 35 3 42 23 46 l22 4 -23 2 c-19 1 -21 5 -16 26 7 28 6 29 -18 14z"/>
<path d="M1178 489 c-10 -6 -18 -16 -18 -24 0 -7 -8 -16 -17 -18 -16 -4 -16
-5 -1 -6 13 -1 16 -11 15 -51 -2 -57 9 -70 58 -69 17 0 23 3 15 6 -26 9 -40
36 -40 75 0 32 3 38 23 39 15 1 17 3 5 6 -9 2 -18 15 -20 28 -2 19 -6 22 -20
14z"/>
<path d="M245 451 c-17 -5 -20 -15 -20 -69 0 -60 1 -62 25 -62 24 0 25 2 23
66 -1 36 -3 67 -5 68 -2 2 -12 0 -23 -3z"/>
<path d="M312 453 c-7 -2 -17 -14 -24 -26 -10 -20 -10 -21 6 -8 25 21 37 -1
34 -56 -3 -38 -1 -43 18 -43 18 0 20 6 19 54 0 29 -7 61 -14 70 -14 17 -18 18
-39 9z"/>
<path d="M598 425 c3 -27 9 -35 24 -35 26 0 21 38 -7 56 -20 13 -21 12 -17
-21z"/>
<path d="M695 451 c-17 -5 -20 -15 -20 -69 0 -60 1 -62 26 -62 22 0 25 3 21
29 -2 15 4 43 13 60 13 27 19 30 31 20 11 -9 14 -8 14 10 0 28 -14 27 -39 -4
l-20 -26 -3 24 c-2 18 -8 22 -23 18z"/>
<path d="M825 453 c-18 -3 -20 -10 -17 -68 3 -59 6 -65 26 -65 21 0 22 4 19
66 -1 37 -4 67 -5 68 -2 1 -12 0 -23 -1z"/>
<path d="M883 433 c-16 -14 -20 -20 -10 -13 27 20 40 0 36 -54 -4 -44 -3 -46
21 -46 24 0 25 3 22 43 -7 95 -24 113 -69 70z"/>
<path d="M1035 450 c-19 -8 -19 -9 3 -9 12 -1 23 -7 24 -13 0 -7 2 -17 3 -23
2 -5 3 -27 4 -47 1 -29 5 -38 19 -38 26 0 24 106 -3 126 -21 16 -22 16 -50 4z"/>
<path d="M1290 451 c-11 -4 -15 -22 -15 -69 0 -55 2 -62 20 -62 18 0 20 6 19
66 -1 36 -4 67 -5 68 -2 2 -11 1 -19 -3z"/>
<path d="M1440 440 c14 -26 13 -93 -2 -108 -9 -9 -9 -12 0 -12 24 0 52 40 52
74 0 34 -10 48 -43 59 -15 6 -16 3 -7 -13z"/>
<path d="M1608 446 c-10 -7 -18 -16 -18 -18 0 -3 8 -5 18 -4 14 1 17 -8 17
-52 0 -51 0 -52 30 -52 20 0 26 3 17 9 -9 5 -11 19 -8 42 6 34 -9 80 -29 85
-5 2 -18 -3 -27 -10z"/>
<path d="M1745 450 c-19 -8 -19 -9 3 -9 26 -1 31 -12 36 -67 2 -21 4 -42 5
-46 1 -5 9 -8 19 -8 16 0 17 7 12 61 -7 74 -25 90 -75 69z"/>
<path d="M2068 448 c7 -7 12 -22 12 -35 0 -16 6 -23 20 -23 11 0 20 7 20 15 0
18 -35 55 -52 55 -9 0 -9 -3 0 -12z"/>
<path d="M2160 449 c-14 -4 -19 -7 -12 -8 10 -1 13 -22 10 -91 l-3 -90 30 0
c17 0 25 3 18 8 -8 5 -11 35 -8 95 2 47 1 88 -3 90 -4 2 -18 1 -32 -4z"/>
<path d="M2234 445 c-12 -10 -14 -14 -5 -13 23 4 37 -47 24 -82 -13 -34 -4
-39 20 -12 26 28 31 69 13 97 -19 29 -25 30 -52 10z"/>
<path d="M2443 448 c-51 -25 -50 -128 1 -128 14 0 28 5 31 10 3 6 0 10 -9 10
-22 0 -30 55 -13 90 9 16 15 30 14 29 -1 0 -12 -5 -24 -11z"/>
<path d="M2650 445 c7 -8 10 -24 7 -35 -4 -16 0 -20 19 -20 39 0 24 48 -20 64
-16 5 -17 4 -6 -9z"/>
<path d="M2808 440 c-22 -17 -22 -18 -3 -17 18 2 20 -4 20 -51 0 -49 2 -52 25
-52 23 0 25 3 24 44 -3 85 -25 110 -66 76z"/>
<path d="M2904 445 c-17 -13 -17 -14 -2 -15 21 0 32 -37 26 -80 -4 -25 -1 -30
16 -30 19 0 21 6 21 60 0 43 -5 64 -15 70 -20 13 -23 12 -46 -5z"/>
<path d="M3015 450 c-16 -4 -24 -8 -17 -9 10 -1 13 -16 10 -61 -3 -55 -1 -60
17 -60 18 0 20 7 20 70 0 39 0 69 0 69 0 -1 -13 -5 -30 -9z"/>
<path d="M3170 440 c14 -26 13 -93 -2 -108 -19 -19 7 -14 30 6 41 35 32 96
-16 113 -20 8 -21 6 -12 -11z"/>
<path d="M3420 440 c14 -26 13 -93 -2 -108 -9 -9 -9 -12 0 -12 24 0 52 40 52
74 0 34 -10 48 -43 59 -15 6 -16 3 -7 -13z"/>
<path d="M3580 445 c7 -8 10 -28 8 -45 -5 -34 -4 -34 23 -20 29 16 25 58 -7
70 -34 13 -39 13 -24 -5z"/>
<path d="M536 428 c-37 -52 -7 -109 55 -107 21 1 27 3 14 6 -39 10 -47 25 -43
75 5 52 -2 60 -26 26z"/>
<path d="M1366 428 c-21 -30 -20 -71 2 -91 26 -24 46 -22 32 2 -14 27 -13 84
2 99 9 9 8 12 -4 12 -9 0 -24 -10 -32 -22z"/>
<path d="M1525 385 c0 -63 1 -65 25 -65 26 0 26 -1 21 108 -1 16 -7 22 -23 22
-22 0 -23 -4 -23 -65z"/>
<path d="M2016 428 c-20 -29 -20 -72 0 -92 9 -10 31 -15 52 -15 22 1 28 3 15
6 -34 7 -45 28 -41 78 4 50 -3 56 -26 23z"/>
<path d="M2325 385 c0 -63 1 -65 25 -65 24 0 25 1 22 65 -3 59 -6 65 -25 65
-20 0 -22 -5 -22 -65z"/>
<path d="M2595 430 c-21 -24 -24 -72 -5 -94 7 -10 27 -16 49 -15 35 1 35 1 9
10 -30 11 -43 50 -32 93 7 31 3 33 -21 6z"/>
<path d="M2735 385 c0 -58 2 -65 20 -65 18 0 20 7 22 65 2 61 0 65 -20 65 -20
0 -22 -5 -22 -65z"/>
<path d="M3096 428 c-21 -30 -20 -71 2 -91 31 -28 41 -21 29 19 -8 26 -8 43 0
65 9 23 9 29 -2 29 -8 0 -21 -10 -29 -22z"/>
<path d="M3346 428 c-21 -30 -20 -71 2 -91 28 -25 46 -22 31 4 -6 12 -9 42 -6
65 5 49 -4 56 -27 22z"/>
<path d="M3512 438 c-17 -17 -15 -58 4 -65 15 -6 15 -7 -1 -19 -17 -12 -16
-14 6 -22 13 -5 38 -14 54 -19 20 -6 29 -15 27 -26 -3 -20 9 -22 26 -5 32 32
4 58 -60 58 -16 0 -28 5 -28 10 0 6 8 10 17 10 15 0 15 1 -1 13 -14 10 -17 23
-14 45 5 33 -8 42 -30 20z"/>
<path d="M3692 398 c32 -81 34 -105 8 -113 -15 -5 -26 -2 -32 6 -7 11 -8 9 -4
-4 3 -10 6 -20 6 -22 0 -2 9 -1 21 2 23 6 73 74 61 83 -5 3 -14 26 -22 53 -10
39 -17 47 -36 47 l-24 0 22 -52z"/>
<path d="M3771 409 c-16 -54 -8 -60 13 -9 18 47 19 50 8 50 -5 0 -14 -18 -21
-41z"/>
<path d="M996 394 c-9 -8 -16 -26 -16 -39 0 -24 17 -35 53 -35 20 1 20 2 5 11
-21 12 -24 65 -5 72 7 4 6 6 -5 6 -9 1 -24 -6 -32 -15z"/>
<path d="M1713 398 c-30 -37 -17 -78 24 -78 25 0 26 0 8 20 -15 17 -16 24 -7
45 9 20 9 25 -2 25 -7 0 -18 -6 -23 -12z"/>
<path d="M3505 306 c-24 -17 -14 -30 30 -40 26 -6 28 -6 13 6 -9 7 -18 21 -20
31 -3 16 -5 17 -23 3z"/>
<path d="M758 119 c3 -84 6 -98 17 -89 8 7 18 10 22 7 4 -3 7 16 6 41 -1 26
-2 68 -2 95 -1 42 -3 47 -23 47 -23 0 -23 -2 -20 -101z"/>
<path d="M2365 120 c0 -100 0 -100 25 -100 l25 0 -3 100 c-3 95 -4 100 -25
100 -21 0 -22 -4 -22 -100z"/>
<path d="M150 202 c-12 -5 -15 -26 -15 -95 0 -84 1 -87 23 -87 21 0 22 3 22
95 0 52 -3 95 -7 94 -5 0 -15 -3 -23 -7z"/>
<path d="M3398 203 c-14 -3 -17 -20 -20 -94 l-3 -89 25 0 c25 0 25 1 27 95 2
52 -1 94 -5 94 -4 -1 -15 -3 -24 -6z"/>
<path d="M3640 204 c8 -4 21 -14 28 -23 13 -14 13 -14 10 4 -2 13 -12 21 -28
22 -14 1 -18 0 -10 -3z"/>
<path d="M234 178 c20 -29 20 -81 0 -120 -15 -29 -15 -30 1 -24 9 3 18 6 21 6
10 0 34 63 34 90 0 32 -30 70 -56 70 -14 0 -14 -2 0 -22z"/>
<path d="M510 187 c-8 -10 -21 -24 -28 -32 -8 -9 -9 -15 -3 -15 6 0 11 -21 11
-48 0 -56 12 -72 55 -71 25 0 27 2 10 8 -17 7 -21 20 -25 92 -5 76 -6 82 -20
66z"/>
<path d="M1582 188 c-7 -7 -12 -18 -12 -25 0 -7 -6 -13 -12 -13 -10 0 -9 -3 1
-9 9 -6 11 -18 6 -40 -9 -41 16 -81 50 -81 l25 0 -21 21 c-19 19 -21 28 -15
90 7 68 2 81 -22 57z"/>
<path d="M1915 110 l0 -90 56 0 c41 0 58 4 63 15 3 8 1 15 -4 15 -6 0 -10 -4
-10 -10 0 -5 -16 -10 -35 -10 -32 0 -35 3 -35 28 0 34 9 48 35 55 18 4 18 5
-2 6 -20 1 -23 7 -23 41 0 35 -3 40 -22 40 -22 0 -23 -3 -23 -90z"/>
<path d="M2015 190 c3 -5 8 -10 11 -10 2 0 4 5 4 10 0 6 -5 10 -11 10 -5 0 -7
-4 -4 -10z"/>
<path d="M2813 193 c-7 -3 -13 -11 -13 -18 0 -8 -8 -19 -17 -24 -10 -6 -12
-11 -5 -11 8 0 12 -16 12 -48 0 -56 12 -72 55 -71 16 0 23 3 15 6 -25 10 -30
25 -29 96 1 73 0 77 -18 70z"/>
<path d="M3150 198 c0 -2 13 -39 30 -82 16 -44 27 -83 24 -88 -3 -4 7 -8 21
-8 29 0 30 -8 -8 113 -18 57 -24 67 -44 67 -13 0 -23 -1 -23 -2z"/>
<path d="M3288 110 l-3 -90 25 0 25 0 -3 90 c-3 80 -6 90 -22 90 -16 0 -19
-10 -22 -90z"/>
<path d="M3467 192 c35 -22 38 -108 5 -144 -22 -26 2 -22 33 5 36 31 43 84 15
120 -12 15 -31 27 -43 27 -14 0 -18 -3 -10 -8z"/>
<path d="M3587 182 c-29 -32 -21 -59 22 -82 48 -24 57 -36 41 -55 -19 -22 4
-18 24 4 25 28 12 57 -35 81 -40 21 -48 37 -27 58 7 7 8 12 2 12 -6 0 -18 -8
-27 -18z"/>
<path d="M383 142 c13 -15 23 -55 26 -109 1 -7 9 -13 19 -13 15 0 17 8 14 57
-4 67 -14 83 -50 83 -23 0 -24 -1 -9 -18z"/>
<path d="M663 142 c10 -10 17 -35 17 -54 0 -48 9 -68 29 -68 14 0 16 8 11 61
-6 62 -18 79 -54 79 -18 0 -18 -1 -3 -18z"/>
<path d="M837 153 c-4 -3 0 -15 9 -24 19 -21 14 -87 -8 -101 -7 -4 -8 -8 -3
-8 42 0 78 77 56 119 -11 20 -41 28 -54 14z"/>
<path d="M980 154 c0 -3 7 -13 16 -22 12 -11 13 -17 5 -20 -9 -3 -9 -7 0 -18
6 -7 9 -19 6 -26 -6 -17 11 -48 26 -48 17 0 15 103 -2 124 -13 15 -51 23 -51
10z"/>
<path d="M1150 153 c8 -3 18 -11 22 -17 5 -7 8 -4 8 7 0 11 -7 17 -22 16 -16
0 -18 -2 -8 -6z"/>
<path d="M1235 135 c-14 -13 -25 -36 -25 -50 0 -33 33 -65 68 -65 25 1 26 1 7
12 -11 6 -22 13 -24 15 -10 8 -10 77 0 94 13 26 3 24 -26 -6z"/>
<path d="M1290 134 c6 -14 7 -30 4 -36 -4 -6 4 -8 17 -6 28 4 28 35 1 56 -25
19 -32 14 -22 -14z"/>
<path d="M1430 153 c8 -3 18 -11 22 -17 5 -7 8 -4 8 7 0 11 -7 17 -22 16 -16
0 -18 -2 -8 -6z"/>
<path d="M1759 146 c6 -7 12 -37 12 -65 2 -56 15 -63 37 -20 21 42 -5 99 -46
99 -11 0 -12 -3 -3 -14z"/>
<path d="M2074 93 c14 -43 29 -69 39 -71 20 -4 21 -1 2 67 -8 30 -12 58 -9 63
3 4 -8 8 -25 8 l-30 0 23 -67z"/>
<path d="M2153 112 c0 -26 1 -40 4 -32 3 8 12 30 19 48 12 29 11 32 -4 32 -13
0 -17 -10 -19 -48z"/>
<path d="M2240 149 c-13 -9 -13 -10 1 -6 28 9 43 -10 45 -60 2 -65 2 -63 22
-63 14 0 17 9 17 54 -1 30 -7 61 -14 70 -15 18 -49 21 -71 5z"/>
<path d="M2457 153 c-4 -3 -7 -29 -7 -58 0 -70 24 -92 66 -60 18 14 18 14 -3
8 -22 -5 -23 -3 -23 56 0 44 -4 61 -13 61 -8 0 -17 -3 -20 -7z"/>
<path d="M2555 152 c-9 -6 -12 -49 -7 -109 1 -15 9 -23 20 -23 15 0 17 9 14
70 -4 69 -7 77 -27 62z"/>
<path d="M2682 143 c8 -10 16 -25 17 -33 2 -22 8 -74 10 -82 0 -5 9 -8 19 -8
15 0 17 8 14 57 -4 61 -18 83 -55 83 -18 0 -19 -2 -5 -17z"/>
<path d="M2927 148 c-24 -19 -38 -64 -28 -92 10 -25 30 -36 63 -36 20 0 20 1
-2 18 -25 20 -33 62 -20 98 11 28 10 29 -13 12z"/>
<path d="M2970 145 c7 -8 10 -24 7 -36 -4 -16 -1 -20 15 -17 30 4 33 23 9 47
-25 25 -50 29 -31 6z"/>
<path d="M1090 135 c-17 -20 -6 -43 27 -56 47 -18 53 -49 9 -49 -12 0 -28 6
-35 13 -11 10 -13 9 -9 -3 11 -36 108 -12 108 26 0 8 -16 24 -35 35 -19 12
-35 27 -35 35 0 18 -14 18 -30 -1z"/>
<path d="M1370 135 c-18 -22 -6 -42 35 -60 21 -8 35 -20 33 -27 -6 -18 -46
-22 -65 -6 -14 11 -15 11 -11 -2 11 -35 108 -13 108 26 0 8 -16 24 -35 35 -19
12 -35 27 -35 35 0 18 -14 18 -30 -1z"/>
<path d="M1685 120 c-8 -16 -15 -35 -15 -43 0 -18 37 -57 55 -57 11 0 11 5 -2
31 -12 25 -13 39 -5 65 13 44 -10 48 -33 4z"/>
<path d="M3120 103 c-7 -21 -19 -48 -26 -60 -14 -22 -13 -23 13 -22 16 0 23 3
17 5 -17 7 -4 54 15 54 13 0 13 2 2 9 -8 5 -11 16 -6 30 3 11 4 21 1 21 -2 0
-10 -17 -16 -37z"/>
<path d="M325 86 c-18 -27 -11 -53 17 -62 26 -8 32 0 18 25 -8 15 -8 27 0 41
16 30 -15 27 -35 -4z"/>
<path d="M606 94 c-9 -8 -16 -22 -16 -29 0 -18 28 -45 46 -45 17 0 17 5 2 30
-10 16 -10 24 0 40 10 17 10 20 -2 20 -8 0 -22 -7 -30 -16z"/>
<path d="M932 98 c-27 -27 -7 -78 31 -78 16 0 17 3 7 15 -7 8 -10 28 -8 45 5
32 -9 39 -30 18z"/>
<path d="M2212 98 c-27 -27 -7 -78 31 -78 16 0 17 3 7 15 -7 8 -10 28 -8 45 5
32 -9 39 -30 18z"/>
<path d="M2625 86 c-20 -30 -6 -66 25 -66 23 0 26 10 8 28 -9 9 -9 18 0 37 10
20 9 25 -3 25 -8 0 -22 -11 -30 -24z"/>
<path d="M3567 43 c4 -18 12 -23 37 -22 27 2 27 2 6 6 -13 3 -30 12 -37 21
-10 15 -11 14 -6 -5z"/>
</g>
</svg>
